<?xml version="1.0" encoding="iso-8859-1"?>
<!-- Generator: Adobe Illustrator 19.0.0, SVG Export Plug-In . SVG Version: 6.00 Build 0)  -->
<svg version="1.1" id="Capa_1" xmlns="http://www.w3.org/2000/svg" xmlns:xlink="http://www.w3.org/1999/xlink" x="0px" y="0px"
	 viewBox="0 0 512.001 512.001" style="enable-background:new 0 0 512.001 512.001;" xml:space="preserve">
<linearGradient id="SVGID_1_" gradientUnits="userSpaceOnUse" x1="254.8283" y1="328.8235" x2="254.8283" y2="78.4235" gradientTransform="matrix(1.0039 0 0 -1.0039 0.1922 516.5618)">
	<stop  offset="0" style="stop-color:#FF5D00"/>
	<stop  offset="1" style="stop-color:#D54003"/>
</linearGradient>
<path style="fill:url(#SVGID_1_);" d="M395.513,146.771v197.556c0,2.297-0.453,4.484-1.272,6.479
	c-0.032,0.079-0.063,0.151-0.103,0.223c-0.207,0.517-0.445,1.018-0.724,1.503c-0.119,0.223-0.246,0.445-0.373,0.66
	c-0.04,0.048-0.063,0.095-0.095,0.143c-0.128,0.207-0.254,0.414-0.398,0.62c-0.294,0.453-0.62,0.89-0.978,1.312
	c0,0-0.016,0.016-0.008,0.016c-0.136,0.16-0.27,0.31-0.406,0.461c-0.111,0.144-0.239,0.278-0.382,0.414
	c-0.31,0.334-0.628,0.644-0.954,0.938c-0.239,0.223-0.493,0.43-0.747,0.637c-0.063,0.056-0.128,0.111-0.191,0.151
	c-0.095,0.079-0.191,0.167-0.294,0.239c-0.087,0.063-0.183,0.119-0.27,0.183l-0.008,0.008c-0.231,0.16-0.453,0.31-0.684,0.461
	c-0.024,0.024-0.04,0.04-0.063,0.04c-0.111,0.079-0.223,0.167-0.341,0.239c-0.239,0.143-0.485,0.286-0.74,0.414
	c-0.231,0.128-0.461,0.246-0.7,0.357c-0.024,0.016-0.048,0.024-0.071,0.032c-0.239,0.119-0.485,0.231-0.739,0.334
	c-0.254,0.111-0.517,0.215-0.779,0.31c-0.254,0.095-0.517,0.191-0.779,0.27c-0.119,0.04-0.239,0.071-0.357,0.103
	c-0.085,0.028-0.175,0.043-0.261,0.067c-0.033,0.012-0.062,0.021-0.096,0.028c-0.088,0.023-0.175,0.043-0.261,0.065
	c-0.07,0.016-0.139,0.04-0.208,0.054c-0.016,0.008-0.032,0.008-0.055,0.016c-0.136,0.032-0.27,0.063-0.414,0.095
	c-0.008,0-0.016,0-0.016,0c-0.27,0.055-0.548,0.111-0.827,0.151h-0.024c-0.254,0.04-0.517,0.071-0.779,0.103
	c-0.128,0.008-0.254,0.024-0.39,0.032c-0.071,0.008-0.136,0.016-0.207,0.016c-0.167,0.016-0.342,0.024-0.517,0.032
	c-0.239,0.008-0.485,0.016-0.731,0.016H133.731c-0.334,0-0.66-0.008-0.986-0.032c-0.215-0.008-0.438-0.024-0.652-0.048
	c-0.548-0.047-1.089-0.128-1.621-0.23c-0.207-0.04-0.414-0.087-0.62-0.136c-0.207-0.047-0.414-0.095-0.612-0.151
	c-0.43-0.111-0.85-0.247-1.264-0.398c-0.215-0.079-0.43-0.159-0.636-0.247c-0.215-0.079-0.422-0.175-0.628-0.262
	c-0.628-0.278-1.224-0.596-1.805-0.939c-0.191-0.119-0.381-0.238-0.572-0.357c-0.191-0.128-0.373-0.254-0.556-0.382
	c-0.183-0.128-0.365-0.262-0.54-0.398c-0.708-0.548-1.375-1.152-1.996-1.797c-2.917-3.093-4.714-7.258-4.714-11.845V146.771
	L256.016,6.439L395.513,146.771z"/>
<linearGradient id="SVGID_2_" gradientUnits="userSpaceOnUse" x1="247.0318" y1="364.6664" x2="127.9218" y2="483.7814" gradientTransform="matrix(1.0039 0 0 -1.0039 0.1922 516.5618)">
	<stop  offset="0" style="stop-color:#FF5D00;stop-opacity:0"/>
	<stop  offset="1" style="stop-color:#D54003"/>
</linearGradient>
<path style="fill:url(#SVGID_2_);" d="M395.513,146.771v197.556c0,2.297-0.453,4.484-1.272,6.479
	c-0.032,0.079-0.063,0.151-0.103,0.223c-0.207,0.517-0.445,1.018-0.724,1.503c-0.119,0.223-0.246,0.445-0.373,0.66
	c-0.04,0.048-0.063,0.095-0.095,0.143c-0.128,0.207-0.254,0.414-0.398,0.62c-0.294,0.453-0.62,0.89-0.978,1.312
	c0,0-0.016,0.016-0.008,0.016c-0.136,0.16-0.27,0.31-0.406,0.461c-0.111,0.144-0.239,0.278-0.382,0.414
	c-0.31,0.334-0.628,0.644-0.954,0.938c-0.239,0.223-0.493,0.43-0.747,0.637c-0.063,0.056-0.128,0.111-0.191,0.151
	c-0.095,0.079-0.191,0.167-0.294,0.239c-0.087,0.063-0.183,0.119-0.27,0.183l-0.008,0.008c-0.231,0.16-0.453,0.31-0.684,0.461
	c-0.024,0.024-0.04,0.04-0.063,0.04c-0.111,0.079-0.223,0.167-0.341,0.239c-0.239,0.143-0.485,0.286-0.74,0.414
	c-0.231,0.128-0.461,0.246-0.7,0.357c-0.024,0.016-0.048,0.024-0.071,0.032c-0.239,0.119-0.485,0.231-0.739,0.334
	c-0.254,0.111-0.517,0.215-0.779,0.31c-0.254,0.095-0.517,0.191-0.779,0.27c-0.119,0.04-0.239,0.071-0.357,0.103
	c-0.079,0.024-0.167,0.048-0.247,0.063c-0.04,0.016-0.071,0.024-0.111,0.032c-0.152,0.04-0.294,0.079-0.445,0.111
	c-0.008,0.008-0.016,0.008-0.024,0.008c-0.016,0.008-0.032,0.008-0.055,0.016c-0.136,0.032-0.278,0.063-0.414,0.087
	c-0.136,0.032-0.278,0.055-0.422,0.079c-0.143,0.032-0.278,0.056-0.422,0.071c-0.215,0.032-0.43,0.063-0.644,0.087
	c-0.183,0.016-0.365,0.04-0.548,0.055c-0.071,0.008-0.136,0.016-0.207,0.016c-0.406,0.024-0.811,0.04-1.224,0.04H307.43
	l-14.19-14.19l-7.386-7.386L207.65,261.76l-5.271-5.263l-85.851-85.851v-23.873L256.016,6.439L395.513,146.771z"/>
<linearGradient id="SVGID_3_" gradientUnits="userSpaceOnUse" x1="351.2607" y1="291.4054" x2="226.8908" y2="415.7754" gradientTransform="matrix(1.0039 0 0 -1.0039 0.1922 516.5618)">
	<stop  offset="0" style="stop-color:#FF5D00;stop-opacity:0"/>
	<stop  offset="1" style="stop-color:#D54003"/>
</linearGradient>
<path style="fill:url(#SVGID_3_);" d="M395.513,199.479v134.433l-0.024-0.024l-10.748-10.748l-62.279-62.279l-11.845-11.845
	l-17.379-17.379l-7.386-7.386l-31.697-31.697l-7.386-7.386l-22.609-22.609c-0.604-0.54-1.193-1.105-1.773-1.686
	c-0.254-0.254-0.509-0.517-0.763-0.779c-0.087-0.087-0.167-0.167-0.239-0.254c-0.231-0.239-0.453-0.485-0.676-0.732
	c-0.278-0.302-0.548-0.604-0.811-0.915c-0.262-0.31-0.525-0.62-0.779-0.938c-0.262-0.318-0.517-0.636-0.763-0.954
	c-0.246-0.326-0.493-0.644-0.732-0.97c-0.008-0.008-0.016-0.016-0.024-0.024c-0.231-0.326-0.461-0.652-0.692-0.978
	c-0.231-0.334-0.461-0.676-0.684-1.018c-0.231-0.342-0.446-0.684-0.66-1.033c-0.223-0.342-0.43-0.692-0.635-1.049
	c-0.422-0.7-0.819-1.424-1.193-2.146c-0.152-0.286-0.294-0.572-0.43-0.858c-0.095-0.191-0.191-0.39-0.286-0.58
	c-0.517-1.089-1.002-2.195-1.431-3.323c-0.103-0.262-0.207-0.525-0.302-0.787c-0.079-0.231-0.159-0.453-0.239-0.684
	c-0.079-0.207-0.143-0.414-0.215-0.62c-0.095-0.294-0.191-0.588-0.286-0.89c-0.087-0.286-0.175-0.58-0.262-0.866
	c-0.016-0.063-0.04-0.128-0.055-0.191c-0.071-0.246-0.143-0.493-0.207-0.747c-0.063-0.247-0.128-0.485-0.183-0.732
	c-0.055-0.215-0.111-0.422-0.159-0.635c-0.063-0.247-0.119-0.493-0.167-0.747c-0.063-0.254-0.119-0.509-0.167-0.763
	c0-0.016-0.008-0.032-0.008-0.047c-0.063-0.27-0.111-0.533-0.159-0.811c-0.008-0.04-0.016-0.087-0.024-0.127
	c-0.048-0.27-0.095-0.541-0.136-0.819c-0.008-0.04-0.016-0.079-0.024-0.119c-0.047-0.302-0.095-0.596-0.136-0.899
	c-0.008-0.047-0.008-0.095-0.016-0.144c-0.008-0.024-0.008-0.04-0.008-0.063c-0.04-0.278-0.079-0.564-0.111-0.85
	c-0.024-0.215-0.048-0.43-0.071-0.652c-0.008-0.087-0.016-0.175-0.024-0.27c-0.04-0.334-0.063-0.668-0.087-1.002
	c-0.048-0.604-0.087-1.209-0.103-1.82c-0.016-0.254-0.024-0.517-0.024-0.771c-0.008-0.357-0.016-0.708-0.016-1.065
	c0-26.251,21.361-47.612,47.612-47.612c0.493,0,0.978,0.008,1.463,0.024c0.349,0.008,0.708,0.024,1.057,0.04
	c0.382,0.024,0.755,0.048,1.136,0.079c0.342,0.024,0.684,0.047,1.018,0.087c0.087,0.008,0.175,0.016,0.262,0.024h0.008
	c0.231,0.024,0.453,0.048,0.684,0.079c0.246,0.024,0.493,0.055,0.74,0.095c0.079,0.008,0.167,0.016,0.247,0.032
	c0.326,0.04,0.652,0.095,0.978,0.144c0.047,0.008,0.087,0.016,0.136,0.024c0.318,0.055,0.643,0.111,0.97,0.175
	c0.152,0.024,0.31,0.055,0.461,0.087c0.278,0.048,0.556,0.103,0.835,0.167c0.326,0.071,0.66,0.144,0.986,0.223
	c0.207,0.048,0.422,0.103,0.628,0.159c0.246,0.055,0.493,0.119,0.732,0.183c0.509,0.136,1.026,0.286,1.534,0.445
	c0.398,0.119,0.787,0.239,1.177,0.373c0.39,0.128,0.779,0.262,1.169,0.406c0.055,0.024,0.111,0.04,0.167,0.055
	c0.334,0.128,0.668,0.254,1.002,0.39c0.207,0.079,0.414,0.159,0.62,0.247c0.055,0.024,0.103,0.047,0.159,0.071
	c0.246,0.095,0.485,0.199,0.724,0.302c0.239,0.103,0.477,0.207,0.716,0.318c0.239,0.103,0.477,0.215,0.716,0.334
	c0.238,0.111,0.477,0.223,0.708,0.342c0.286,0.136,0.572,0.278,0.858,0.43c0.724,0.373,1.439,0.771,2.146,1.193
	c0.357,0.207,0.708,0.414,1.049,0.635c0.349,0.215,0.692,0.43,1.033,0.66c0.342,0.223,0.684,0.453,1.018,0.684
	c0.668,0.469,1.327,0.946,1.972,1.447c0.318,0.254,0.635,0.509,0.954,0.763c0.628,0.517,1.248,1.041,1.852,1.59
	c0.302,0.278,0.596,0.548,0.898,0.834c0.008,0,0.024,0.008,0.032,0.024c0.548,0.525,1.081,1.065,1.613,1.614
	c0.032,0.032,0.055,0.055,0.079,0.087c0.278,0.294,0.556,0.596,0.827,0.899c0.032,0.024,0.048,0.04,0.063,0.063L395.513,199.479z"/>
<linearGradient id="SVGID_4_" gradientUnits="userSpaceOnUse" x1="266.7953" y1="385.1906" x2="10.6554" y2="244.4705" gradientTransform="matrix(1.0039 0 0 -1.0039 0.1922 516.5618)">
	<stop  offset="0" style="stop-color:#FFE7A5"/>
	<stop  offset="0.966" style="stop-color:#FFBF5C"/>
</linearGradient>
<path style="fill:url(#SVGID_4_);" d="M427.056,166.172L264.414,3.477c-4.636-4.636-12.152-4.636-16.788,0L84.944,166.16
	c-3.033,3.033-3.033,7.95,0,10.983l6.933,6.933c3.033,3.033,7.95,3.033,10.983,0l150.95-150.95c1.221-1.221,3.2-1.221,4.419,0
	l150.91,150.963c3.033,3.033,7.95,3.033,10.983,0l6.933-6.933C430.089,174.122,430.089,169.204,427.056,166.172z"/>
<linearGradient id="SVGID_5_" gradientUnits="userSpaceOnUse" x1="310.5278" y1="445.2524" x2="192.3378" y2="563.4404" gradientTransform="matrix(1.0039 0 0 -1.0039 0.1922 516.5618)">
	<stop  offset="0" style="stop-color:#FF5D00;stop-opacity:0"/>
	<stop  offset="1" style="stop-color:#D54003"/>
</linearGradient>
<path style="fill:url(#SVGID_5_);" d="M264.414,3.477c-2.318-2.318-5.356-3.477-8.394-3.477v32.21c0.8,0,1.599,0.305,2.21,0.916
	l150.91,150.963c3.033,3.033,7.95,3.033,10.983,0l6.933-6.933c3.033-3.033,3.033-7.95,0-10.983L264.414,3.477z"/>
<linearGradient id="SVGID_6_" gradientUnits="userSpaceOnUse" x1="207.6383" y1="239.5729" x2="91.5383" y2="355.6629" gradientTransform="matrix(1.0039 0 0 -1.0039 0.1922 516.5618)">
	<stop  offset="0" style="stop-color:#FF5D00;stop-opacity:0"/>
	<stop  offset="1" style="stop-color:#D54003"/>
</linearGradient>
<path style="fill:url(#SVGID_6_);" d="M360.161,361.545H307.11h-79.92l-95.662-95.662c-3.18-1.915-5.311-5.39-5.311-9.365v-30.432
	c0-22.824,18.564-41.388,41.38-41.388c12.362,0,23.461,5.453,31.052,14.071L360.161,361.545z"/>
<path style="fill:#654E48;" d="M198.034,260.862h-60.869c-2.4,0-4.345-1.946-4.345-4.345v-30.435c0-19.208,15.572-34.78,34.78-34.78
	l0,0c19.208,0,34.78,15.572,34.78,34.78v30.435C202.379,258.917,200.434,260.862,198.034,260.862z"/>
<path style="fill:#FFFFFF;" d="M198.88,199.01c-0.016-0.016-0.032-0.04-0.055-0.063c-1.002-1.144-2.059-2.242-3.18-3.252
	c-1.32-1.232-2.711-2.361-4.181-3.394c-0.294-0.207-0.588-0.414-0.89-0.612c-0.899-0.604-1.813-1.169-2.759-1.702
	c-0.628-0.365-1.272-0.7-1.924-1.018c-0.286-0.143-0.572-0.278-0.866-0.414c-0.739-0.349-1.495-0.676-2.266-0.978
	c-0.628-0.246-1.256-0.477-1.9-0.7c0,0,0,0-0.008,0c-0.636-0.223-1.28-0.422-1.932-0.604c-0.103-0.032-0.199-0.055-0.294-0.079
	c-0.556-0.159-1.121-0.302-1.686-0.43c-0.199-0.047-0.398-0.095-0.596-0.136c-0.278-0.055-0.556-0.119-0.835-0.167
	c-0.365-0.071-0.731-0.144-1.105-0.199c-0.302-0.055-0.604-0.103-0.907-0.144h-0.024c-0.43-0.063-0.866-0.119-1.304-0.167
	c-0.373-0.047-0.747-0.079-1.129-0.111c-0.286-0.024-0.564-0.048-0.85-0.055c-0.286-0.024-0.572-0.04-0.866-0.047
	c-0.191-0.016-0.381-0.016-0.572-0.024c-0.382-0.008-0.771-0.016-1.152-0.016c-0.357,0-0.716,0.008-1.065,0.016
	c-0.43,0.008-0.85,0.024-1.272,0.055c-0.254,0.008-0.501,0.024-0.747,0.04c-0.406,0.032-0.811,0.071-1.217,0.111
	c-0.31,0.032-0.612,0.063-0.915,0.103c-0.239,0.032-0.485,0.063-0.724,0.103c-0.231,0.032-0.453,0.063-0.684,0.103
	c-0.302,0.048-0.612,0.103-0.915,0.159c-0.31,0.055-0.612,0.111-0.915,0.175c-0.548,0.119-1.097,0.239-1.637,0.382
	c-1.312,0.326-2.592,0.716-3.84,1.161c-0.223,0.079-0.438,0.159-0.652,0.246c-0.509,0.191-1.01,0.39-1.511,0.604
	c-0.239,0.103-0.477,0.207-0.716,0.318c-0.946,0.414-1.868,0.874-2.775,1.359c-0.199,0.111-0.398,0.215-0.596,0.326
	c-0.588,0.334-1.169,0.676-1.749,1.041c-0.254,0.159-0.501,0.318-0.755,0.485c-0.231,0.152-0.453,0.302-0.676,0.453
	c-1.256,0.866-2.473,1.797-3.625,2.791c-0.286,0.247-0.572,0.501-0.858,0.755c-0.525,0.485-1.033,0.97-1.534,1.479
	c-0.254,0.254-0.509,0.517-0.755,0.779c-0.517,0.548-1.018,1.113-1.511,1.694c-0.215,0.254-0.422,0.517-0.636,0.779
	c-0.231,0.278-0.453,0.564-0.668,0.858c-0.191,0.247-0.382,0.501-0.564,0.755c-1.248,1.717-2.361,3.53-3.339,5.43
	c-0.151,0.294-0.302,0.596-0.445,0.899c-0.144,0.286-0.278,0.58-0.406,0.874c-0.016,0.024-0.024,0.04-0.032,0.063
	c-0.111,0.247-0.223,0.493-0.326,0.739c-0.946,2.21-1.709,4.516-2.258,6.909c-0.063,0.262-0.119,0.517-0.175,0.779
	c-0.047,0.207-0.087,0.422-0.127,0.635c-0.063,0.294-0.119,0.596-0.167,0.899c-0.048,0.278-0.095,0.556-0.136,0.842
	c-0.048,0.302-0.087,0.612-0.127,0.923c-0.047,0.334-0.079,0.676-0.119,1.018c0,0.016,0,0.04-0.008,0.071
	c-0.024,0.294-0.055,0.588-0.079,0.882c-0.008,0.127-0.016,0.262-0.024,0.406c-0.024,0.254-0.04,0.501-0.047,0.755
	c-0.016,0.357-0.032,0.708-0.04,1.065c-0.008,0.349-0.016,0.7-0.016,1.057v30.44c0,0.207,0.008,0.414,0.024,0.62
	c0,0.087,0.008,0.183,0.016,0.27c0,0.008,0,0.008,0,0.016c0.008,0.136,0.024,0.27,0.04,0.406v0.024
	c0.008,0.087,0.024,0.175,0.04,0.262c0.055,0.381,0.127,0.763,0.231,1.136c0.024,0.111,0.055,0.223,0.087,0.326
	c0.032,0.111,0.063,0.223,0.103,0.334c0,0.008,0.008,0.016,0.008,0.024c0.032,0.087,0.055,0.175,0.095,0.262
	c0.008,0.032,0.024,0.063,0.04,0.103c0.04,0.136,0.095,0.262,0.152,0.398c0.008,0.024,0.016,0.055,0.032,0.079
	c0.079,0.199,0.175,0.39,0.27,0.58c0.095,0.199,0.207,0.398,0.318,0.596c0,0.008,0,0.016,0.016,0.024
	c0.103,0.191,0.223,0.373,0.342,0.556c0.016,0.032,0.04,0.063,0.063,0.095c0.119,0.167,0.231,0.334,0.357,0.493
	c0.136,0.183,0.286,0.365,0.437,0.541c0.151,0.175,0.31,0.342,0.469,0.509c0.318,0.334,0.66,0.643,1.026,0.923
	c0.183,0.151,0.382,0.294,0.58,0.43c0.191,0.136,0.398,0.262,0.596,0.39c1.637,0.986,3.554,1.55,5.605,1.55h60.873
	c4.142,0,7.751-2.313,9.612-5.708c0.85-1.558,1.335-3.339,1.335-5.239v-30.44C208.985,215.744,205.169,206.275,198.88,199.01z
	 M195.772,254.262h-21.568V235.77h21.568V254.262z M149.996,204.114c3.172-2.56,6.916-4.436,11.003-5.422v23.865h-21.345
	C140.583,215.116,144.423,208.581,149.996,204.114z M174.204,198.692c11.249,2.719,19.883,12.188,21.345,23.865h-21.345V198.692z
	 M139.423,235.77h21.576v18.491h-21.576V235.77z"/>
<linearGradient id="SVGID_7_" gradientUnits="userSpaceOnUse" x1="354.979" y1="269.3236" x2="285.279" y2="339.0336" gradientTransform="matrix(1.0039 0 0 -1.0039 0.1922 516.5618)">
	<stop  offset="0" style="stop-color:#FF5D00;stop-opacity:0"/>
	<stop  offset="1" style="stop-color:#D54003"/>
</linearGradient>
<path style="fill:url(#SVGID_7_);" d="M395.513,217.843v126.483c0,2.297-0.453,4.484-1.272,6.479l-84.921-84.922
	c-0.787-0.477-1.519-1.049-2.17-1.709c-0.159-0.167-0.318-0.334-0.469-0.509c-0.151-0.175-0.294-0.357-0.438-0.541
	c-0.119-0.159-0.239-0.326-0.357-0.493c-0.024-0.032-0.048-0.063-0.063-0.095c-0.119-0.183-0.238-0.365-0.341-0.556
	c-0.016-0.008-0.016-0.016-0.016-0.024c-0.111-0.199-0.223-0.398-0.318-0.596c-0.095-0.191-0.191-0.382-0.27-0.58
	c-0.087-0.191-0.159-0.39-0.223-0.58c-0.04-0.095-0.071-0.191-0.103-0.286c-0.04-0.111-0.071-0.223-0.103-0.334
	c-0.032-0.103-0.063-0.215-0.087-0.326c-0.103-0.373-0.175-0.755-0.231-1.136c-0.016-0.095-0.032-0.191-0.04-0.286
	c-0.016-0.136-0.032-0.27-0.04-0.406c-0.008-0.095-0.016-0.191-0.016-0.286c-0.016-0.207-0.024-0.414-0.024-0.62v-30.44
	c0-22.816,18.564-41.38,41.388-41.38c0.866,0,1.725,0.024,2.576,0.079c0.286,0.016,0.572,0.04,0.858,0.063h0.032
	c0.365,0.032,0.724,0.063,1.089,0.111c0.453,0.047,0.898,0.103,1.343,0.167c0.302,0.04,0.604,0.087,0.907,0.144
	c0.365,0.055,0.731,0.128,1.097,0.199c0.278,0.047,0.556,0.103,0.826,0.167c0.175,0.032,0.357,0.071,0.533,0.119
	c0.278,0.055,0.548,0.128,0.819,0.199c0.302,0.071,0.612,0.152,0.915,0.239c0.111,0.024,0.215,0.055,0.318,0.087
	c0.652,0.191,1.304,0.39,1.94,0.604c0,0,0,0,0.008,0c0.342,0.119,0.684,0.239,1.025,0.365c0.342,0.127,0.684,0.262,1.018,0.398
	c0.684,0.262,1.359,0.556,2.027,0.866c0.318,0.151,0.644,0.31,0.954,0.461c0.652,0.326,1.296,0.668,1.924,1.018
	c1.025,0.58,2.019,1.193,2.99,1.852c0.016,0.008,0.032,0.016,0.047,0.032c0.946,0.652,1.868,1.335,2.759,2.059
	c0.453,0.373,0.898,0.747,1.336,1.129c0.437,0.39,0.866,0.787,1.288,1.185c0.842,0.811,1.645,1.653,2.416,2.528l0.167,0.167
	c0.024,0.024,0.048,0.048,0.063,0.071L395.513,217.843z"/>
<path style="fill:#654E48;" d="M375.829,260.862h-60.869c-2.4,0-4.345-1.946-4.345-4.345v-30.435c0-19.208,15.572-34.78,34.78-34.78
	l0,0c19.208,0,34.78,15.572,34.78,34.78v30.435C380.174,258.917,378.229,260.862,375.829,260.862z"/>
<path style="fill:#FFFFFF;" d="M376.673,199.01c-0.016-0.024-0.04-0.048-0.063-0.071c-0.819-0.938-1.678-1.844-2.584-2.696
	c-0.422-0.398-0.85-0.795-1.288-1.185c-0.438-0.398-0.882-0.771-1.336-1.129c-0.89-0.731-1.812-1.416-2.759-2.059
	c-0.016-0.016-0.032-0.024-0.047-0.032c-0.97-0.66-1.964-1.28-2.99-1.852c-0.628-0.365-1.272-0.7-1.924-1.018
	c-0.31-0.151-0.635-0.31-0.954-0.461c-0.668-0.31-1.343-0.604-2.027-0.866c-0.334-0.136-0.676-0.27-1.018-0.398
	c-0.341-0.128-0.684-0.247-1.025-0.365c-0.008,0-0.008,0-0.008,0c-0.635-0.215-1.288-0.414-1.94-0.604
	c-0.103-0.032-0.207-0.063-0.318-0.087c-0.302-0.087-0.612-0.167-0.915-0.239c-0.27-0.071-0.541-0.144-0.819-0.199
	c-0.175-0.047-0.357-0.087-0.533-0.119c-0.27-0.063-0.548-0.119-0.826-0.167c-0.365-0.071-0.732-0.144-1.097-0.199
	c-0.302-0.055-0.604-0.103-0.907-0.144c-0.445-0.063-0.89-0.119-1.343-0.167c-0.365-0.047-0.724-0.079-1.089-0.111h-0.032
	c-0.286-0.024-0.572-0.048-0.858-0.063c-0.85-0.055-1.709-0.079-2.576-0.079c-22.824,0-41.388,18.563-41.388,41.38v30.44
	c0,0.207,0.008,0.414,0.024,0.62c0,0.095,0.008,0.191,0.016,0.286c0.008,0.136,0.024,0.27,0.04,0.406
	c0.008,0.095,0.024,0.191,0.04,0.286c0.055,0.382,0.128,0.763,0.231,1.136c0.024,0.111,0.055,0.223,0.087,0.326
	c0.032,0.111,0.063,0.223,0.103,0.334c0.032,0.095,0.063,0.191,0.103,0.286c0.063,0.191,0.136,0.39,0.223,0.58
	c0.079,0.199,0.175,0.39,0.27,0.58c0.095,0.199,0.207,0.398,0.318,0.596c0,0.008,0,0.016,0.016,0.024
	c0.103,0.191,0.223,0.373,0.341,0.556c0.016,0.032,0.04,0.063,0.063,0.095c0.119,0.167,0.239,0.334,0.357,0.493
	c0.144,0.183,0.286,0.365,0.438,0.541c0.151,0.175,0.31,0.342,0.469,0.509c0.652,0.676,1.391,1.264,2.202,1.741
	c1.637,0.986,3.554,1.55,5.605,1.55h60.873c6.034,0,10.947-4.913,10.947-10.947v-30.44
	C386.777,215.744,382.96,206.275,376.673,199.01z M338.791,198.692v23.865h-21.345C318.908,210.879,327.542,201.41,338.791,198.692z
	 M317.214,235.77h21.576v18.491h-21.576V235.77z M373.572,254.262h-21.576V235.77h21.576V254.262z M373.342,222.557h-21.346v-23.865
	C363.245,201.41,371.879,210.879,373.342,222.557z"/>
<path style="fill:#FFBF5C;" d="M226.152,361.542V205.056c0-6.902,5.596-12.498,12.498-12.498h34.703
	c6.902,0,12.498,5.596,12.498,12.498v156.486H226.152z"/>
<path style="fill:#FFE7A5;" d="M293.242,361.542h-14.783V209.316c0-5.151-4.214-9.367-9.367-9.367H242.91
	c-5.173,0-9.367,4.193-9.367,9.367v152.226h-14.783V199.54c0-7.938,6.435-14.374,14.374-14.374h45.734
	c7.938,0,14.374,6.435,14.374,14.374L293.242,361.542L293.242,361.542z"/>
<circle style="fill:#FFFFFF;" cx="245.409" cy="251.292" r="6.74"/>
<linearGradient id="SVGID_8_" gradientUnits="userSpaceOnUse" x1="181.3563" y1="146.401" x2="111.1563" y2="216.601" gradientTransform="matrix(1.0039 0 0 -1.0039 0.1922 516.5618)">
	<stop  offset="0" style="stop-color:#FF5D00;stop-opacity:0"/>
	<stop  offset="1" style="stop-color:#D54003"/>
</linearGradient>
<path style="fill:url(#SVGID_8_);" d="M221.826,361.541h-88.092c-0.336,0-0.663,0-0.988-0.022c-0.213-0.011-0.438-0.022-0.651-0.056
	c-0.55-0.045-1.088-0.123-1.627-0.225c-0.202-0.045-0.416-0.09-0.617-0.135c-0.202-0.045-0.416-0.101-0.617-0.157
	c-0.427-0.112-0.841-0.247-1.257-0.393c-0.213-0.078-0.427-0.157-0.639-0.247c-0.213-0.078-0.416-0.18-0.628-0.258
	c-0.628-0.281-1.224-0.606-1.807-0.943c-0.191-0.123-0.381-0.236-0.572-0.359c-0.191-0.123-0.37-0.258-0.55-0.382
	c-0.18-0.123-0.37-0.258-0.539-0.393c-0.707-0.55-1.38-1.157-1.998-1.796c-2.918-3.098-4.713-7.261-4.713-11.852v-86.274
	c2.211,1.066,4.232,2.481,5.971,4.164c0.089,0.089,0.169,0.169,0.247,0.247L221.826,361.541z"/>
<linearGradient id="SVGID_9_" gradientUnits="userSpaceOnUse" x1="115.8618" y1="173.54" x2="393.7558" y2="173.54" gradientTransform="matrix(1.0039 0 0 -1.0039 0.1922 516.5618)">
	<stop  offset="0" style="stop-color:#816965"/>
	<stop  offset="1" style="stop-color:#654E48"/>
</linearGradient>
<path style="fill:url(#SVGID_9_);" d="M395.492,323.138v21.186c0,9.511-7.71,17.221-17.221,17.221H133.73
	c-9.511,0-17.221-7.71-17.221-17.221v-21.186H395.492z"/>
<circle style="fill:#503837;" cx="256.02" cy="127.197" r="41.002"/>
<path style="fill:#FFFFFF;" d="M291.441,95.414c-0.016-0.024-0.032-0.04-0.063-0.063c-0.27-0.302-0.548-0.604-0.827-0.899
	c-0.024-0.032-0.047-0.055-0.079-0.087c-0.533-0.548-1.065-1.089-1.613-1.614c-0.008-0.016-0.024-0.024-0.032-0.024
	c-0.302-0.286-0.596-0.556-0.898-0.834c-0.604-0.556-1.217-1.081-1.852-1.59c-0.318-0.254-0.636-0.509-0.954-0.763
	c-0.643-0.501-1.304-0.978-1.972-1.447c-0.334-0.231-0.676-0.461-1.018-0.684c-0.342-0.231-0.684-0.445-1.033-0.66
	c-0.342-0.223-0.692-0.43-1.049-0.635c-0.708-0.422-1.424-0.819-2.146-1.193c-0.286-0.152-0.572-0.294-0.858-0.43
	c-0.231-0.119-0.469-0.231-0.708-0.342c-0.239-0.119-0.477-0.231-0.716-0.334c-0.239-0.111-0.477-0.215-0.716-0.318
	c-0.239-0.103-0.477-0.207-0.724-0.302c-0.055-0.024-0.103-0.047-0.159-0.071c-0.207-0.087-0.414-0.167-0.62-0.247
	c-0.334-0.136-0.668-0.262-1.002-0.39c-0.055-0.016-0.111-0.032-0.167-0.055c-0.39-0.143-0.779-0.278-1.169-0.406
	c-0.39-0.136-0.779-0.254-1.177-0.373c-0.509-0.159-1.026-0.31-1.534-0.445c-0.239-0.063-0.485-0.128-0.732-0.183
	c-0.207-0.055-0.422-0.111-0.628-0.159c-0.326-0.079-0.66-0.151-0.986-0.223c-0.278-0.063-0.556-0.119-0.835-0.167
	c-0.152-0.032-0.31-0.063-0.461-0.087c-0.326-0.063-0.652-0.119-0.97-0.175c-0.048-0.008-0.087-0.016-0.136-0.024
	c-0.326-0.047-0.652-0.103-0.978-0.144c-0.079-0.016-0.167-0.024-0.247-0.032c-0.247-0.04-0.493-0.071-0.74-0.095
	c-0.231-0.032-0.453-0.055-0.684-0.079h-0.008c-0.087-0.008-0.175-0.016-0.262-0.024c-0.334-0.04-0.676-0.063-1.018-0.087
	c-0.382-0.032-0.755-0.055-1.136-0.079c-0.349-0.016-0.708-0.032-1.057-0.04c-0.485-0.016-0.97-0.024-1.463-0.024
	c-26.251,0-47.612,21.361-47.612,47.612c0,0.357,0.008,0.708,0.016,1.065c0,0.254,0.008,0.517,0.024,0.771
	c0.016,0.612,0.055,1.217,0.103,1.82c0.024,0.334,0.047,0.668,0.087,1.002c0.008,0.095,0.016,0.183,0.024,0.27
	c0.024,0.223,0.048,0.438,0.071,0.652c0.032,0.286,0.071,0.572,0.111,0.85c0,0.024,0,0.04,0.008,0.063
	c0.008,0.048,0.008,0.095,0.016,0.144c0.04,0.302,0.087,0.596,0.136,0.899c0.008,0.04,0.016,0.079,0.024,0.119
	c0.04,0.278,0.087,0.548,0.136,0.819c0.008,0.04,0.016,0.087,0.024,0.128c0.047,0.278,0.095,0.54,0.159,0.811
	c0,0.016,0.008,0.032,0.008,0.047c0.047,0.254,0.103,0.509,0.167,0.763c0.048,0.254,0.103,0.501,0.167,0.747
	c0.048,0.215,0.103,0.422,0.159,0.635c0.055,0.247,0.119,0.485,0.183,0.732c0.063,0.254,0.136,0.501,0.207,0.747
	c0.016,0.063,0.04,0.128,0.055,0.191c0.087,0.286,0.175,0.58,0.262,0.866c0.095,0.302,0.191,0.596,0.286,0.89
	c0.071,0.207,0.136,0.414,0.215,0.62c0.079,0.231,0.159,0.453,0.239,0.684c0.095,0.262,0.199,0.525,0.302,0.787
	c0.43,1.128,0.915,2.234,1.431,3.323c0.095,0.191,0.191,0.39,0.286,0.58c0.136,0.286,0.278,0.572,0.43,0.858
	c0.373,0.724,0.771,1.447,1.193,2.146c0.207,0.357,0.414,0.708,0.635,1.049c0.215,0.349,0.43,0.692,0.66,1.033
	c0.223,0.342,0.453,0.684,0.684,1.018c0.231,0.326,0.461,0.652,0.692,0.978c0.008,0.008,0.016,0.016,0.024,0.024
	c0.239,0.326,0.485,0.644,0.732,0.97c0.246,0.318,0.501,0.636,0.763,0.954c0.254,0.318,0.517,0.628,0.779,0.938
	c0.262,0.31,0.533,0.612,0.811,0.915c0.223,0.246,0.445,0.493,0.676,0.732c0.071,0.087,0.151,0.167,0.239,0.254
	c0.254,0.262,0.509,0.525,0.763,0.779c0.58,0.58,1.169,1.144,1.773,1.686c8.443,7.616,19.621,12.259,31.855,12.259
	c26.259,0,47.62-21.361,47.62-47.62C303.636,114.995,299.017,103.849,291.441,95.414z M262.63,160.945v-27.133h27.133
	C287.093,147.479,276.297,158.274,262.63,160.945z M289.763,120.584H262.63V93.459C276.297,96.129,287.093,106.917,289.763,120.584z
	 M222.277,133.812h27.133v27.133C235.736,158.274,224.948,147.479,222.277,133.812z M249.41,120.584h-27.133
	c2.671-13.666,13.46-24.454,27.133-27.125V120.584z"/>
<linearGradient id="SVGID_10_" gradientUnits="userSpaceOnUse" x1="4.7625" y1="294.6105" x2="241.5677" y2="57.8103" gradientTransform="matrix(1.0039 0 0 -1.0039 0.1922 516.5618)">
	<stop  offset="0" style="stop-color:#FFE7A5"/>
	<stop  offset="0.966" style="stop-color:#FFBF5C"/>
</linearGradient>
<path style="fill:url(#SVGID_10_);" d="M167.489,335.062c-9.275,0-35.91-9.461-42.281-13.265c-0.149-0.102-0.299-0.203-0.451-0.3
	c-0.66-0.429-65.686-44.16-66.12-99.613c-0.096-12.328-10.104-22.996-22.433-23.005c-12.404-0.009-22.463,10.044-22.463,22.447
	c0,79.397,80.314,133.714,86.342,137.676c1.867,1.256,4.504,2.704,7.669,4.236l0.715,0.441
	c30.402,18.758,48.912,51.929,48.912,87.652l0,0c0,4.871,3.948,8.819,8.819,8.819h69.571c7.084,0,12.826-5.742,12.826-12.826V416.17
	C248.595,371.447,212.21,335.062,167.489,335.062z"/>
<linearGradient id="SVGID_11_" gradientUnits="userSpaceOnUse" x1="104.9259" y1="221.9905" x2="210.6348" y2="116.2816" gradientTransform="matrix(1.0039 0 0 -1.0039 0.1922 516.5618)">
	<stop  offset="0" style="stop-color:#FFE7A5"/>
	<stop  offset="0.966" style="stop-color:#FFBF5C"/>
</linearGradient>
<path style="fill:url(#SVGID_11_);" d="M175.794,380.644c-1.087,0-2.186-0.079-3.293-0.242
	c-24.268-3.567-46.544-15.761-62.722-34.335c-16.347-18.769-25.35-42.826-25.35-67.74c0-12.397,10.049-22.447,22.447-22.447
	s22.447,10.049,22.447,22.447c0,28.706,21.369,53.495,49.707,57.659c12.266,1.802,20.747,13.206,18.944,25.472
	C196.333,372.616,186.746,380.644,175.794,380.644z"/>
<linearGradient id="SVGID_12_" gradientUnits="userSpaceOnUse" x1="199.1763" y1="98.4135" x2="199.1763" y2="75.7235" gradientTransform="matrix(1.0039 0 0 -1.0039 0.1922 516.5618)">
	<stop  offset="0" style="stop-color:#E2EDF2"/>
	<stop  offset="0.418" style="stop-color:#C6DDEB"/>
	<stop  offset="1" style="stop-color:#9FC7E2"/>
</linearGradient>
<path style="fill:url(#SVGID_12_);" d="M266.832,420.086v24.437c0,5.898-4.782,10.679-10.679,10.679H144.146
	c-5.898,0-10.679-4.782-10.679-10.679v-24.437c0-5.898,4.782-10.679,10.679-10.679h112.006
	C262.05,409.408,266.832,414.189,266.832,420.086z"/>
<linearGradient id="SVGID_13_" gradientUnits="userSpaceOnUse" x1="181.3116" y1="35.5503" x2="335.5016" y2="92.4903" gradientTransform="matrix(1.0039 0 0 -1.0039 0.1922 516.5618)">
	<stop  offset="0" style="stop-color:#4975AD"/>
	<stop  offset="1" style="stop-color:#114F77"/>
</linearGradient>
<path style="fill:url(#SVGID_13_);" d="M281.344,447.634v53.23c0,6.15-4.985,11.137-11.137,11.137H130.091
	c-6.15,0-11.137-4.986-11.137-11.137v-53.23c0-6.15,4.985-11.136,11.137-11.136h140.116
	C276.358,436.498,281.344,441.484,281.344,447.634z"/>
<linearGradient id="SVGID_14_" gradientUnits="userSpaceOnUse" x1="504.8534" y1="294.6126" x2="268.0505" y2="57.8098" gradientTransform="matrix(1.0039 0 0 -1.0039 0.1922 516.5618)">
	<stop  offset="0" style="stop-color:#FFE7A5"/>
	<stop  offset="0.966" style="stop-color:#FFBF5C"/>
</linearGradient>
<path style="fill:url(#SVGID_14_);" d="M344.512,335.062c9.275,0,35.91-9.461,42.281-13.265c0.149-0.102,0.299-0.203,0.451-0.3
	c0.66-0.429,65.686-44.16,66.12-99.613c0.096-12.328,10.104-22.996,22.433-23.005c12.404-0.009,22.463,10.044,22.463,22.447
	c0,79.397-80.314,133.714-86.342,137.676c-1.867,1.256-4.504,2.704-7.669,4.236l-0.715,0.441
	c-30.402,18.758-48.912,51.929-48.912,87.652l0,0c0,4.871-3.948,8.819-8.819,8.819h-69.571c-7.084,0-12.826-5.742-12.826-12.826
	V416.17C263.405,371.447,299.79,335.062,344.512,335.062z"/>
<linearGradient id="SVGID_15_" gradientUnits="userSpaceOnUse" x1="353.8695" y1="176.3836" x2="336.9995" y2="300.0836" gradientTransform="matrix(1.0039 0 0 -1.0039 0.1922 516.5618)">
	<stop  offset="0" style="stop-color:#FF5D00;stop-opacity:0"/>
	<stop  offset="1" style="stop-color:#D54003"/>
</linearGradient>
<path style="fill:url(#SVGID_15_);" d="M404.247,363.237c3.166-1.532,5.802-2.98,7.669-4.236
	c3.102-2.039,25.871-17.41,47.247-42.669l-31.935-31.935c-18.32,22.535-39.608,36.854-39.984,37.098
	c-0.152,0.097-0.301,0.199-0.451,0.3c-6.371,3.804-33.006,13.265-42.281,13.265c-44.723,0-81.107,36.385-81.107,81.108v31.154
	c0,7.084,5.742,12.826,12.826,12.826h69.571c4.871,0,8.819-3.948,8.819-8.819c0-35.723,18.51-68.894,48.912-87.652L404.247,363.237z
	"/>
<linearGradient id="SVGID_16_" gradientUnits="userSpaceOnUse" x1="404.6918" y1="221.9906" x2="298.9829" y2="116.2816" gradientTransform="matrix(1.0039 0 0 -1.0039 0.1922 516.5618)">
	<stop  offset="0" style="stop-color:#FFE7A5"/>
	<stop  offset="0.966" style="stop-color:#FFBF5C"/>
</linearGradient>
<path style="fill:url(#SVGID_16_);" d="M336.207,380.644c1.087,0,2.186-0.079,3.293-0.242c24.268-3.567,46.544-15.761,62.722-34.335
	c16.347-18.769,25.35-42.826,25.35-67.74c0-12.397-10.049-22.447-22.447-22.447s-22.447,10.049-22.447,22.447
	c0,28.706-21.369,53.495-49.707,57.659c-12.266,1.802-20.747,13.206-18.944,25.472C315.667,372.616,325.255,380.644,336.207,380.644
	z"/>
<linearGradient id="SVGID_17_" gradientUnits="userSpaceOnUse" x1="310.4408" y1="98.4135" x2="310.4408" y2="75.7235" gradientTransform="matrix(1.0039 0 0 -1.0039 0.1922 516.5618)">
	<stop  offset="0" style="stop-color:#E2EDF2"/>
	<stop  offset="0.418" style="stop-color:#C6DDEB"/>
	<stop  offset="1" style="stop-color:#9FC7E2"/>
</linearGradient>
<path style="fill:url(#SVGID_17_);" d="M245.169,420.086v24.437c0,5.898,4.782,10.679,10.679,10.679h112.006
	c5.898,0,10.679-4.782,10.679-10.679v-24.437c0-5.898-4.782-10.679-10.679-10.679H255.849
	C249.951,409.408,245.169,414.189,245.169,420.086z"/>
<linearGradient id="SVGID_18_" gradientUnits="userSpaceOnUse" x1="328.3062" y1="35.5503" x2="174.1161" y2="92.4903" gradientTransform="matrix(1.0039 0 0 -1.0039 0.1922 516.5618)">
	<stop  offset="0" style="stop-color:#4975AD"/>
	<stop  offset="1" style="stop-color:#114F77"/>
</linearGradient>
<path style="fill:url(#SVGID_18_);" d="M230.656,447.634v53.23c0,6.15,4.985,11.137,11.137,11.137h140.116
	c6.15,0,11.137-4.986,11.137-11.137v-53.23c0-6.15-4.985-11.136-11.137-11.136H241.793
	C235.643,436.498,230.656,441.484,230.656,447.634z"/>
<linearGradient id="SVGID_19_" gradientUnits="userSpaceOnUse" x1="325.1017" y1="-8.0037" x2="267.3317" y2="49.7563" gradientTransform="matrix(1.0039 0 0 -1.0039 0.1922 516.5618)">
	<stop  offset="0" style="stop-color:#4975AD;stop-opacity:0"/>
	<stop  offset="1" style="stop-color:#114F77"/>
</linearGradient>
<path style="fill:url(#SVGID_19_);" d="M290.859,460.75c-3.644-3.951-8.849-6.442-14.647-6.442
	c-11.013,0-19.941,8.928-19.941,19.941c0,5.799,2.491,11.003,6.442,14.647l23.104,23.104h56.291L290.859,460.75z"/>
<linearGradient id="SVGID_20_" gradientUnits="userSpaceOnUse" x1="255.9439" y1="61.1385" x2="286.0338" y2="31.0485" gradientTransform="matrix(1.0039 0 0 -1.0039 0.1922 516.5618)">
	<stop  offset="0" style="stop-color:#FFE7A5"/>
	<stop  offset="0.966" style="stop-color:#FFBF5C"/>
</linearGradient>
<circle style="fill:url(#SVGID_20_);" cx="276.209" cy="474.253" r="19.941"/>
<g>
</g>
<g>
</g>
<g>
</g>
<g>
</g>
<g>
</g>
<g>
</g>
<g>
</g>
<g>
</g>
<g>
</g>
<g>
</g>
<g>
</g>
<g>
</g>
<g>
</g>
<g>
</g>
<g>
</g>
</svg>
