<?xml version="1.0" encoding="iso-8859-1"?>
<!-- Generator: Adobe Illustrator 19.0.0, SVG Export Plug-In . SVG Version: 6.00 Build 0)  -->
<svg version="1.1" id="Capa_1" xmlns="http://www.w3.org/2000/svg" xmlns:xlink="http://www.w3.org/1999/xlink" x="0px" y="0px"
	 viewBox="0 0 511.609 511.609" style="enable-background:new 0 0 511.609 511.609;" xml:space="preserve">
<polygon style="fill:#E6E9ED;" points="255.81,356.103 163.873,300.138 163.873,324.127 185.559,392.263 255.802,364.097 
	326.053,392.263 347.74,324.127 347.74,300.138 "/>
<g style="opacity:0.2;">
	<path d="M255.794,363.348c27.276,0,63.272-22.233,91.945-56.129v-7.081l-91.93,55.965l-91.937-55.965v7.206
		C192.538,341.208,228.534,363.348,255.794,363.348z"/>
</g>
<g>
	<path style="fill:#656D78;" d="M499.608,435.292c0,31.976,0,71.944,0,71.944h-195.85l11.428-15.987l40.532-47.964l-7.994-23.98
		l39.97-55.957l-17.151-17.144c18.064,7.916,69.431,28.813,81.102,33.131C483.619,391.248,499.608,403.317,499.608,435.292z"/>
	<polygon style="fill:#656D78;" points="303.758,507.237 286.607,507.237 326.303,390.686 347.724,323.378 387.694,363.348 
		347.724,419.305 355.718,443.285 	"/>
</g>
<g style="opacity:0.2;">
	<polygon style="fill:#FFFFFF;" points="303.758,507.237 286.607,507.237 326.303,390.686 347.724,323.378 387.694,363.348 
		347.724,419.305 355.718,443.285 	"/>
</g>
<g>
	<path style="fill:#656D78;" d="M11.982,435.292c0,31.976,0,71.944,0,71.944h195.85l-11.429-15.987l-40.531-47.964l7.994-23.98
		l-39.969-55.957l17.151-17.144c-18.064,7.916-69.431,28.813-81.102,33.131C27.97,391.248,11.982,403.317,11.982,435.292z"/>
	<polygon style="fill:#656D78;" points="207.831,507.237 224.982,507.237 185.286,390.686 163.865,323.378 123.896,363.348 
		163.865,419.305 155.871,443.285 	"/>
</g>
<g style="opacity:0.2;">
	<polygon style="fill:#FFFFFF;" points="207.831,507.237 224.982,507.237 185.286,390.686 163.865,323.378 123.896,363.348 
		163.865,419.305 155.871,443.285 	"/>
</g>
<g style="opacity:0.2;">
	<path d="M155.871,443.285l7.994-23.98l-39.969-55.957l17.151-17.144c-3.544,1.546-8.384,3.606-13.935,5.933l-11.21,11.211
		l39.97,55.957l-7.994,23.98l51.96,63.951h7.994L155.871,443.285z"/>
</g>
<g style="opacity:0.3;">
	<path style="fill:#FFFFFF;" d="M115.902,363.348l11.21-11.211c-22.764,9.54-57.784,23.732-67.167,27.198
		c-31.975,11.913-47.963,23.981-47.963,55.957s0,71.944,0,71.944H27.97c0-16.814,0-35.605,0-55.957
		c0-31.975,15.988-44.044,47.963-55.957c7.088-2.623,28.798-11.351,48.821-19.586L115.902,363.348z"/>
</g>
<g style="opacity:0.2;">
	<path d="M355.718,443.285l-7.994-23.98l39.97-55.957l-17.151-17.144c3.544,1.546,8.384,3.606,13.935,5.933l11.21,11.211
		l-39.97,55.957l7.993,23.98l-51.96,63.951h-7.993L355.718,443.285z"/>
</g>
<g style="opacity:0.6;">
	<path style="opacity:0.3;enable-background:new    ;" d="M395.687,363.348l-11.21-11.211c22.764,9.54,57.784,23.732,67.167,27.198
		c31.976,11.913,47.964,23.981,47.964,55.957s0,71.944,0,71.944H483.62c0-16.814,0-35.605,0-55.957
		c0-31.975-15.987-44.044-47.963-55.957c-7.088-2.623-28.799-11.351-48.822-19.586L395.687,363.348z"/>
</g>
<polygon style="fill:#CCD1D9;" points="255.794,363.348 326.053,391.466 291.767,491.249 286.607,507.237 224.982,507.237 
	219.822,491.249 185.552,391.513 "/>
<polygon style="fill:#ED5565;" points="275.78,403.317 235.81,403.317 222.742,376.572 255.794,363.348 288.855,376.572 "/>
<g style="opacity:0.3;">
	<polygon style="fill:#FFFFFF;" points="226.317,383.878 235.81,403.317 243.804,403.317 233.015,381.233 	"/>
</g>
<g style="opacity:0.3;">
	<polygon points="285.272,383.878 275.78,403.317 267.785,403.317 278.575,381.233 	"/>
</g>
<polygon style="fill:#ED5565;" points="283.773,505.988 227.816,505.988 227.816,443.285 243.804,403.317 267.785,403.317 
	283.773,443.285 "/>
<g style="opacity:0.3;">
	<polygon style="fill:#FFFFFF;" points="251.798,403.317 243.804,403.317 227.816,443.285 227.816,505.988 235.81,505.988 
		235.81,443.285 	"/>
</g>
<g style="opacity:0.3;">
	<polygon points="259.791,403.317 267.785,403.317 283.773,443.285 283.773,507.034 279.011,505.988 275.78,505.988 275.78,443.285 
			"/>
</g>
<g style="opacity:0.3;">
	<polygon points="255.069,363.644 185.552,391.513 188.151,399.679 255.802,372.09 323.633,399.086 326.053,391.466 
		256.544,363.644 255.81,364.097 	"/>
</g>
<path style="fill:#656D78;" d="M255.806,3.998c155.877,0,139.889,159.877,139.889,159.877l-35.09-49.399
	c0,0-54.435,25.418-104.799,25.418c-50.359,0-106.477-25.418-106.477-25.418l-33.416,49.399
	C115.913,163.875,99.926,3.998,255.806,3.998z"/>
<g style="opacity:0.2;">
	<path style="fill:#FFFFFF;" d="M263.796,4.256c-2.646-0.094-5.23-0.258-7.99-0.258c-155.88,0-139.893,159.877-139.893,159.877
		l15.848-23.427C134.138,97.091,152.709,8.378,263.796,4.256z"/>
</g>
<g style="opacity:0.2;">
	<path d="M247.816,4.256c2.65-0.094,5.234-0.258,7.994-0.258c155.881,0,139.893,159.877,139.893,159.877l-15.847-23.427
		C377.475,97.091,358.91,8.378,247.816,4.256z"/>
</g>
<path style="fill:#EAC6BB;" d="M395.695,179.864v7.994c0,16.784-2.872,33.014-7.993,48.439
	c-47.964,71.468-81.056,81.937-111.914,95.45l-7.994-7.994h-23.978l-7.994,7.994c-30.855-13.513-63.951-23.981-111.914-95.45
	c-5.117-15.426-7.994-31.656-7.994-48.439v-7.994v-15.989l33.416-49.399c0,0,56.117,25.418,106.477,25.418
	c50.364,0,104.799-25.418,104.799-25.418l35.09,49.399v15.989H395.695z"/>
<g style="opacity:0.5;">
	<path style="fill:#FFFFFF;" d="M147.015,268.42c-5.117-15.426-15.113-63.779-15.113-80.563v-7.994v-39.415l-15.988,23.427v15.988
		v7.994c0,16.784,2.877,33.014,7.994,48.439C123.908,236.297,146.511,266.867,147.015,268.42z"/>
</g>
<g style="opacity:0.2;">
	<path d="M364.594,268.42c5.121-15.426,15.113-63.779,15.113-80.563v-7.994v-39.415l15.987,23.427v15.988v7.994
		c0,16.784-2.872,33.014-7.993,48.439C387.701,236.297,365.101,266.867,364.594,268.42z"/>
</g>
<path style="fill:#656D78;" d="M275.787,331.746c30.858-13.513,63.95-23.981,111.914-95.45
	C365,304.806,299.292,355.728,255.805,355.728c-43.486,0-109.197-50.922-131.898-119.432c47.963,71.468,81.059,81.937,111.914,95.45
	l7.994-7.994h23.978L275.787,331.746z"/>
<g style="opacity:0.2;">
	<path style="fill:#FFFFFF;" d="M170.625,292.8c-14.036-12.92-29.395-30.695-46.718-56.503
		c22.701,68.51,88.413,119.432,131.898,119.432c2.588,0,5.262-0.203,7.99-0.563C234.549,351.38,197.894,327.703,170.625,292.8z"/>
</g>
<g style="opacity:0.2;">
	<path d="M340.987,292.8c14.036-12.92,29.399-30.695,46.723-56.503c-22.701,68.51-88.409,119.432-131.899,119.432
		c-2.588,0-5.261-0.203-7.994-0.563C277.067,351.38,313.727,327.703,340.987,292.8z"/>
</g>
<path style="fill:#656D78;" d="M235.822,204.087c0,4.395-3.599,7.994-7.994,7.994h-55.957c-4.395,0-7.994-3.599-7.994-7.994v-15.988
	c0-4.395,3.599-7.994,7.994-7.994h55.957c4.396,0,7.994,3.599,7.994,7.994v8.236V204.087z"/>
<g style="opacity:0.3;">
	<polygon style="fill:#FFFFFF;" points="183.011,212.081 199.564,212.081 208.132,180.105 191.582,180.105 	"/>
</g>
<g style="opacity:0.3;">
	<polygon style="fill:#FFFFFF;" points="203.846,212.081 208.124,212.081 216.692,180.105 212.414,180.105 	"/>
</g>
<path style="fill:#656D78;" d="M347.732,204.087c0,4.395-3.591,7.994-7.994,7.994h-55.957c-4.387,0-7.993-3.599-7.993-7.994v-15.988
	c0-4.395,3.606-7.994,7.993-7.994h55.957c4.403,0,7.994,3.599,7.994,7.994v8.236V204.087z"/>
<g style="opacity:0.3;">
	<polygon style="fill:#FFFFFF;" points="294.928,212.081 311.479,212.081 320.05,180.105 303.5,180.105 	"/>
</g>
<g style="opacity:0.3;">
	<polygon style="fill:#FFFFFF;" points="315.756,212.081 320.034,212.081 328.606,180.105 324.328,180.105 	"/>
</g>
<path style="fill:#ED5565;" d="M291.9,291.778c0,4.418-5.823,7.994-12.99,7.994c-7.182,0-12.99-3.576-12.99-7.994
	c0-4.419,5.809-7.994,12.99-7.994C286.076,283.784,291.9,287.359,291.9,291.778z"/>
<g>
	<path style="fill:#3A3847;" d="M255.798,359.725c-55.508,0-143.889-78.658-143.889-171.868c0-2.209,1.788-3.997,3.997-3.997
		s3.997,1.788,3.997,3.997c0,88.877,83.471,163.874,135.896,163.874c27.483,0,64.673-21.92,92.519-54.551
		c2.163-2.545,4.294-5.16,6.363-7.846c1.342-1.733,3.855-2.085,5.604-0.719c1.749,1.343,2.077,3.856,0.726,5.605
		c-2.146,2.779-4.363,5.504-6.611,8.143C324.656,337.211,285.951,359.725,255.798,359.725z"/>
	<path style="fill:#3A3847;" d="M385.016,247.803c-0.484,0-0.969-0.085-1.437-0.265c-2.062-0.789-3.092-3.099-2.296-5.16
		c6.901-18.033,10.414-36.378,10.414-54.521c0-2.209,1.78-3.997,3.997-3.997c2.202,0,3.997,1.788,3.997,3.997
		c0,19.126-3.685,38.431-10.944,57.377C388.138,246.827,386.623,247.803,385.016,247.803z"/>
	<path style="fill:#3A3847;" d="M115.906,167.872c-0.324,0-0.655-0.039-0.979-0.125c-1.632-0.406-2.83-1.803-2.998-3.474
		c-0.304-3.029-6.924-74.81,36.621-122.929C173.378,13.911,209.464,0,255.799,0c46.336,0,82.425,13.911,107.25,41.344
		c43.545,48.119,36.925,119.9,36.62,122.929c-0.164,1.655-1.343,3.037-2.959,3.466c-1.615,0.398-3.31-0.195-4.277-1.545
		l-33.209-46.753c-12.318,5.395-59.002,24.45-103.425,24.45c-44.438,0-92.39-19.087-104.985-24.442l-31.597,46.667
		C118.462,167.233,117.209,167.872,115.906,167.872z M360.574,110.455c1.265,0,2.49,0.602,3.263,1.679l28.283,39.821
		c0-22.015-3.864-70.875-35.035-105.287C333.836,21.009,299.761,7.995,255.798,7.995c-43.981,0-78.072,13.029-101.32,38.712
		c-30.965,34.216-34.965,82.577-35.012,104.779l26.589-39.274c1.097-1.608,3.185-2.193,4.961-1.397
		c0.554,0.25,55.938,25.082,104.782,25.082c48.834,0,102.551-24.816,103.089-25.066C359.426,110.58,360.003,110.455,360.574,110.455
		z"/>
	<path style="fill:#3A3847;" d="M275.787,335.743c-1.546,0-3.014-0.89-3.67-2.396c-0.882-2.021,0.039-4.372,2.062-5.262l6.386-2.763
		c12.881-5.527,26.183-11.242,40.859-21.695c1.811-1.279,4.293-0.858,5.573,0.938c1.28,1.795,0.867,4.293-0.937,5.573
		c-15.363,10.953-29.079,16.839-42.343,22.53l-6.331,2.74C276.865,335.634,276.318,335.743,275.787,335.743z"/>
	<path style="fill:#3A3847;" d="M235.81,335.743c-0.535,0-1.077-0.109-1.601-0.335l-6.347-2.74
		c-29.036-12.467-61.948-26.598-107.28-94.17c-1.23-1.835-0.742-4.317,1.093-5.543c1.83-1.233,4.317-0.75,5.542,1.093
		c44.021,65.614,74.412,78.658,103.799,91.274l6.401,2.763c2.021,0.89,2.943,3.24,2.057,5.262
		C238.82,334.854,237.352,335.743,235.81,335.743z"/>
	<path style="fill:#3A3847;" d="M275.787,335.743c-1.031,0-2.046-0.39-2.826-1.171l-7.994-7.994c-1.565-1.561-1.565-4.09,0-5.651
		c1.562-1.562,4.091-1.562,5.652,0l7.993,7.993c1.562,1.562,1.562,4.091,0,5.652C277.832,335.354,276.802,335.743,275.787,335.743z"
		/>
	<path style="fill:#3A3847;" d="M235.814,335.743c-1.022,0-2.045-0.39-2.826-1.171c-1.561-1.562-1.561-4.091,0-5.652l7.994-7.993
		c1.562-1.562,4.091-1.562,5.652,0s1.561,4.091,0,5.651l-7.994,7.994C237.859,335.354,236.836,335.743,235.814,335.743z"/>
	<path style="fill:#3A3847;" d="M267.793,327.75h-23.985c-2.209,0-3.997-1.788-3.997-3.998c0-2.209,1.788-3.996,3.997-3.996h23.985
		c2.201,0,3.997,1.787,3.997,3.996C271.79,325.962,269.994,327.75,267.793,327.75z"/>
	<path style="fill:#3A3847;" d="M395.695,191.854c-2.217,0-3.997-1.787-3.997-3.997v-7.994c0-2.209,1.78-3.997,3.997-3.997
		c2.202,0,3.997,1.788,3.997,3.997v7.994C399.692,190.067,397.897,191.854,395.695,191.854z"/>
	<path style="fill:#3A3847;" d="M115.906,191.854c-2.209,0-3.997-1.787-3.997-3.997v-7.994c0-2.209,1.788-3.997,3.997-3.997
		s3.997,1.788,3.997,3.997v7.994C119.903,190.067,118.115,191.854,115.906,191.854z"/>
	<path style="fill:#3A3847;" d="M499.616,511.609H11.993c-2.209,0-3.997-1.788-3.997-3.997v-71.945
		c0-34.309,17.771-47.455,50.563-59.703c17.955-6.699,34.021-13.147,47.757-19.159c2.033-0.874,4.379,0.039,5.266,2.062
		c0.886,2.022-0.035,4.38-2.058,5.262c-13.872,6.073-30.078,12.568-48.17,19.329c-30.734,11.476-45.363,22.217-45.363,52.209v67.948
		h479.628v-67.948c0-29.992-14.63-40.733-45.372-52.209c-18.532-6.94-34.278-13.264-48.15-19.337
		c-2.021-0.882-2.943-3.239-2.061-5.262c0.89-2.022,3.224-2.943,5.27-2.061c13.731,6.011,29.353,12.279,47.744,19.173
		c32.787,12.24,50.563,25.387,50.563,59.695v71.945C503.612,509.821,501.817,511.609,499.616,511.609z"/>
	<path style="fill:#3A3847;" d="M275.787,407.688h-39.966c-1.515,0-2.896-0.858-3.575-2.209l-7.994-15.987
		c-0.987-1.976-0.188-4.372,1.788-5.363c1.982-0.991,4.371-0.18,5.363,1.788l6.889,13.778h35.021l6.893-13.778
		c0.983-1.968,3.389-2.779,5.355-1.788c1.982,0.991,2.779,3.388,1.795,5.363l-7.993,15.987
		C278.675,406.829,277.301,407.688,275.787,407.688z"/>
	<path style="fill:#3A3847;" d="M227.827,447.658c-0.495,0-0.999-0.094-1.483-0.288c-2.049-0.82-3.048-3.146-2.229-5.191
		l15.988-39.97c0.819-2.046,3.161-3.037,5.195-2.225c2.049,0.819,3.048,3.146,2.229,5.19l-15.988,39.97
		C230.915,446.705,229.412,447.658,227.827,447.658z"/>
	<path style="fill:#3A3847;" d="M283.781,447.658c-1.593,0-3.091-0.952-3.716-2.514l-15.987-39.97
		c-0.819-2.045,0.18-4.371,2.232-5.19c2.022-0.813,4.372,0.179,5.191,2.225l15.987,39.97c0.82,2.045-0.18,4.371-2.225,5.191
		C284.78,447.564,284.273,447.658,283.781,447.658z"/>
	<path style="fill:#3A3847;" d="M315.155,495.621c-0.913,0-1.826-0.313-2.575-0.945c-1.687-1.429-1.897-3.95-0.477-5.636
		l39.118-46.246l-7.283-21.851c-0.406-1.21-0.203-2.545,0.539-3.591l38.002-53.201l-37.573-37.573c-1.562-1.561-1.562-4.09,0-5.651
		s4.091-1.562,5.652,0l39.969,39.97c1.374,1.381,1.562,3.559,0.422,5.151l-38.782,54.295l7.346,22.053
		c0.445,1.327,0.164,2.779-0.742,3.849l-40.563,47.963C317.419,495.137,316.287,495.621,315.155,495.621z"/>
	<path style="fill:#3A3847;" d="M291.775,495.621c-0.422,0-0.843-0.063-1.265-0.203c-2.092-0.703-3.232-2.967-2.529-5.059
		l55.957-167.871c0.703-2.085,2.936-3.24,5.059-2.529c2.092,0.702,3.217,2.966,2.521,5.059l-55.957,167.871
		C295.006,494.559,293.446,495.621,291.775,495.621z"/>
	<path style="fill:#3A3847;" d="M315.756,391.701c-0.5,0-0.999-0.094-1.483-0.288l-59.95-23.982
		c-2.049-0.819-3.048-3.146-2.229-5.191c0.82-2.053,3.162-3.044,5.195-2.225l59.95,23.981c2.046,0.819,3.044,3.146,2.225,5.191
		C318.84,390.748,317.333,391.701,315.756,391.701z"/>
	<path style="fill:#3A3847;" d="M196.45,495.621c-1.136,0-2.264-0.484-3.057-1.414l-40.563-47.963
		c-0.901-1.069-1.179-2.521-0.737-3.849l7.35-22.053l-38.787-54.295c-1.136-1.593-0.957-3.771,0.425-5.151l39.97-39.97
		c1.561-1.562,4.09-1.562,5.651,0c1.562,1.562,1.562,4.091,0,5.651l-37.576,37.573l38.002,53.201
		c0.746,1.046,0.944,2.381,0.539,3.591l-7.284,21.851l39.115,46.246c1.425,1.686,1.214,4.207-0.472,5.636
		C198.276,495.309,197.359,495.621,196.45,495.621z"/>
	<path style="fill:#3A3847;" d="M219.834,495.621c-1.674,0-3.232-1.063-3.79-2.732l-55.957-167.871
		c-0.699-2.093,0.433-4.356,2.525-5.059c2.108-0.711,4.356,0.444,5.055,2.529l55.957,167.871c0.699,2.092-0.433,4.355-2.525,5.059
		C220.677,495.559,220.251,495.621,219.834,495.621z"/>
	<path style="fill:#3A3847;" d="M195.852,391.701c-1.584,0-3.087-0.952-3.712-2.514c-0.819-2.045,0.18-4.372,2.229-5.191
		l59.954-23.981c2.034-0.812,4.375,0.18,5.195,2.225c0.82,2.046-0.18,4.372-2.229,5.191l-59.954,23.982
		C196.852,391.607,196.348,391.701,195.852,391.701z"/>
	<path style="fill:#3A3847;" d="M255.806,495.621c-2.209,0-3.997-1.788-3.997-3.998v-63.95c0-2.209,1.788-3.997,3.997-3.997
		c2.21,0,3.997,1.788,3.997,3.997v63.95C259.803,493.833,258.016,495.621,255.806,495.621z"/>
	<path style="fill:#3A3847;" d="M291.892,295.774c-2.101,0-3.864-1.646-3.989-3.777c-0.125-2.202,1.562-4.083,3.771-4.208
		c0.843-0.047,84.521-5.105,102.491-38.471c5.449-10.109,4.2-21.71-3.801-35.473c-1.109-1.905-0.461-4.348,1.443-5.465
		c1.897-1.108,4.356-0.468,5.465,1.452c9.384,16.136,10.711,30.703,3.935,43.279c-20.094,37.292-105.466,42.452-109.088,42.654
		C292.04,295.774,291.962,295.774,291.892,295.774z"/>
	<path style="fill:#3A3847;" d="M278.909,303.768c-9.524,0-16.991-5.27-16.991-11.99c0-6.722,7.467-11.991,16.991-11.991
		s16.987,5.27,16.987,11.991C295.897,298.498,288.434,303.768,278.909,303.768z M278.909,287.781c-5.581,0-8.993,2.584-8.993,3.997
		s3.412,3.996,8.993,3.996c5.574,0,8.993-2.583,8.993-3.996S284.484,287.781,278.909,287.781z"/>
	<path style="fill:#3A3847;" d="M227.827,215.836H171.87c-6.612,0-11.99-5.378-11.99-11.991v-15.988
		c0-6.612,5.378-11.991,11.99-11.991h55.957c6.612,0,11.991,5.379,11.991,11.991v15.988
		C239.819,210.457,234.44,215.836,227.827,215.836z M171.87,183.86c-2.205,0-3.997,1.795-3.997,3.997v15.988
		c0,2.201,1.792,3.997,3.997,3.997h55.957c2.167,0,3.997-1.827,3.997-3.997v-15.988c0-2.17-1.831-3.997-3.997-3.997H171.87z"/>
	<path style="fill:#3A3847;" d="M339.738,215.836h-55.957c-6.62,0-11.99-5.378-11.99-11.991v-15.988
		c0-6.612,5.37-11.991,11.99-11.991h55.957c6.62,0,11.991,5.379,11.991,11.991v15.988
		C351.729,210.457,346.358,215.836,339.738,215.836z M283.781,183.86c-2.17,0-3.997,1.827-3.997,3.997v15.988
		c0,2.17,1.827,3.997,3.997,3.997h55.957c2.171,0,3.997-1.827,3.997-3.997v-15.988c0-2.17-1.826-3.997-3.997-3.997H283.781z"/>
	<path style="fill:#3A3847;" d="M275.787,200.09h-39.981c-2.209,0-3.997-1.788-3.997-3.997c0-2.209,1.788-3.997,3.997-3.997h39.981
		c2.201,0,3.996,1.788,3.996,3.997C279.783,198.302,277.989,200.09,275.787,200.09z"/>
</g>
<g>
</g>
<g>
</g>
<g>
</g>
<g>
</g>
<g>
</g>
<g>
</g>
<g>
</g>
<g>
</g>
<g>
</g>
<g>
</g>
<g>
</g>
<g>
</g>
<g>
</g>
<g>
</g>
<g>
</g>
</svg>
