<?xml version="1.0" encoding="iso-8859-1"?>
<!-- Generator: Adobe Illustrator 19.0.0, SVG Export Plug-In . SVG Version: 6.00 Build 0)  -->
<svg version="1.1" id="Layer_1" xmlns="http://www.w3.org/2000/svg" xmlns:xlink="http://www.w3.org/1999/xlink" x="0px" y="0px"
	 viewBox="0 0 512 512" style="enable-background:new 0 0 512 512;" xml:space="preserve">
<rect x="24" y="219.996" style="fill:#ED7149;" width="464.004" height="207.995"/>
<rect x="231.997" y="323.998" style="fill:#CBBBA0;" width="48" height="104.003"/>
<rect x="231.997" y="252.002" style="fill:#F9B233;" width="48" height="48"/>
<g>
	<rect x="55.998" y="259.996" style="fill:#FFFFFF;" width="144.003" height="135.998"/>
	<rect x="311.997" y="252.002" style="fill:#FFFFFF;" width="144.003" height="144.003"/>
</g>
<g>
	<rect x="80" y="283.998" style="fill:#F9B233;" width="80" height="40"/>
	<rect x="384.004" y="348" style="fill:#F9B233;" width="48" height="24"/>
	<path style="fill:#F9B233;" d="M342.477,156c-7.533-40.95-43.347-72-86.477-72s-78.943,31.05-86.477,72H8v40h496v-40H342.477z"/>
</g>
<g>
	<path style="fill:#1D1D1B;" d="M511.847,203.847H0.153v-55.694h163.064c10.751-42.094,48.773-72,92.784-72s82.032,29.906,92.784,72
		h163.064v55.694H511.847z M15.847,188.152h480.306v-24.305H335.941l-1.182-6.427c-6.99-37.995-40.113-65.573-78.758-65.573
		s-71.769,27.577-78.758,65.573l-1.182,6.427H15.847V188.152z"/>
	<path style="fill:#1D1D1B;" d="M207.847,403.847H48.152V252.153h159.695V403.847z M63.846,388.152h128.306V267.847H63.846V388.152z
		"/>
	<path style="fill:#1D1D1B;" d="M463.847,403.847H304.152V244.153h159.695V403.847z M319.846,388.152h128.306V259.847H319.846
		V388.152z"/>
	<path style="fill:#1D1D1B;" d="M495.847,420.152V227.847h7.782v-15.695H8.323v15.695h7.828v192.305H0v15.695h512v-15.695
		L495.847,420.152L495.847,420.152z M272.153,420.152h-32.306v-88.305h32.306V420.152z M287.847,420.152V316.153h-63.695v103.999
		H31.847V227.847h448.306v192.305L287.847,420.152L287.847,420.152z"/>
	<path style="fill:#1D1D1B;" d="M167.847,331.848H72.153v-55.695h95.694V331.848z M87.848,316.153h64.305v-24.306H87.848V316.153z"
		/>
</g>
<g>
	<rect x="215.999" y="124.154" style="fill:#FFFFFF;" width="80" height="15.695"/>
	<rect x="240.001" y="156.15" style="fill:#FFFFFF;" width="32" height="15.695"/>
</g>
<g>
	<path style="fill:#1D1D1B;" d="M439.848,379.847h-63.695v-39.694h63.695V379.847z M391.848,364.152h32.306v-8.304h-32.306V364.152z
		"/>
	<path style="fill:#1D1D1B;" d="M287.847,307.847h-63.695v-63.695h63.695V307.847z M239.847,292.153h32.306v-32.306h-32.306V292.153
		z"/>
	
		<rect x="336.133" y="280.681" transform="matrix(-0.7071 -0.7071 0.7071 -0.7071 380.7395 741.697)" style="fill:#1D1D1B;" width="15.694" height="22.627"/>
	
		<rect x="408.134" y="304.68" transform="matrix(-0.7071 -0.7071 0.7071 -0.7071 486.6835 833.5773)" style="fill:#1D1D1B;" width="15.694" height="22.627"/>
	
		<rect x="364.137" y="261.087" transform="matrix(-0.7071 -0.7071 0.7071 -0.7071 414.3992 795.649)" style="fill:#1D1D1B;" width="15.694" height="101.825"/>
	
		<rect x="94.143" y="338.182" transform="matrix(-0.7071 -0.7071 0.7071 -0.7071 -79.0229 683.2284)" style="fill:#1D1D1B;" width="15.694" height="39.597"/>
	
		<rect x="142.144" y="338.187" transform="matrix(-0.7071 -0.7071 0.7071 -0.7071 2.9179 717.1788)" style="fill:#1D1D1B;" width="15.694" height="39.597"/>
</g>
<g>
</g>
<g>
</g>
<g>
</g>
<g>
</g>
<g>
</g>
<g>
</g>
<g>
</g>
<g>
</g>
<g>
</g>
<g>
</g>
<g>
</g>
<g>
</g>
<g>
</g>
<g>
</g>
<g>
</g>
</svg>
